<?xml version="1.0" encoding="UTF-8"?>
<svg width="36px" height="30px" viewBox="0 0 36 30" version="1.1" xmlns="http://www.w3.org/2000/svg" xmlns:xlink="http://www.w3.org/1999/xlink">
    <!-- Generator: Sketch 53.2 (72643) - https://sketchapp.com -->
    <title>noun_Arrow_3699820</title>
    <desc>Created with Sketch.</desc>
    <g id="Page-1" stroke="none" stroke-width="1" fill="none" fill-rule="evenodd">
        <g id="noun_Arrow_3699820" transform="translate(-82.000000, 0.000000)" fill="#000000" fill-rule="nonzero">
            <path d="M98.975,29.3629936 L98.975,29.3629936 C99.975,28.3629936 99.875,26.7629936 98.875,25.8629936 L90.275,17.5629936 L115.475,17.5629936 C116.875,17.5629936 117.975,16.4629936 117.975,15.0629936 L117.975,15.0629936 C117.975,13.6629936 116.875,12.5629936 115.475,12.5629936 L90.275,12.5629936 L98.875,4.26299365 C99.875,3.26299365 99.875,1.76299365 98.975,0.762993649 L98.975,0.762993649 C97.975,-0.237006351 96.475,-0.237006351 95.475,0.662993649 L82.975,12.6629936 C81.675,13.9629936 81.675,16.0629936 82.975,17.3629936 L95.475,29.3629936 C96.475,30.4629936 98.075,30.3629936 98.975,29.3629936 Z" id="Path"></path>
        </g>
    </g>
</svg>