<?xml version="1.0" encoding="UTF-8"?>
<svg width="36px" height="30px" viewBox="0 0 36 30" version="1.1" xmlns="http://www.w3.org/2000/svg" xmlns:xlink="http://www.w3.org/1999/xlink">
    <!-- Generator: Sketch 53.2 (72643) - https://sketchapp.com -->
    <title>noun_Arrow_3699820</title>
    <desc>Created with Sketch.</desc>
    <g id="Page-1" stroke="none" stroke-width="1" fill="none" fill-rule="evenodd">
        <g id="noun_Arrow_3699820" fill="#000000" fill-rule="nonzero">
            <path d="M16.975,29.3629936 L16.975,29.3629936 C17.975,28.3629936 17.875,26.7629936 16.875,25.8629936 L8.275,17.5629936 L33.475,17.5629936 C34.875,17.5629936 35.975,16.4629936 35.975,15.0629936 L35.975,15.0629936 C35.975,13.6629936 34.875,12.5629936 33.475,12.5629936 L8.275,12.5629936 L16.875,4.26299365 C17.875,3.26299365 17.875,1.76299365 16.975,0.762993649 L16.975,0.762993649 C15.975,-0.237006351 14.475,-0.237006351 13.475,0.662993649 L0.975,12.6629936 C-0.325,13.9629936 -0.325,16.0629936 0.975,17.3629936 L13.475,29.3629936 C14.475,30.4629936 16.075,30.3629936 16.975,29.3629936 Z" id="Path" transform="translate(17.987500, 15.075470) rotate(-180.000000) translate(-17.987500, -15.075470) "></path>
        </g>
    </g>
</svg>